<svg xmlns="http://www.w3.org/2000/svg" xmlns:xlink="http://www.w3.org/1999/xlink" version="1.1" x="0px" y="0px" viewBox="0 0 100 125" enable-background="new 0 0 100 100" xml:space="preserve"><g><path fill-rule="evenodd" clip-rule="evenodd" d="M90.065,40.012c-0.793-6.067-3.507-11.349-6.83-16.336   C78.53,16.615,71.823,12.431,63.642,10.49C60.048,9.637,56.34,9.72,52.7,9.022c-9.569-1.835-18.394,0.134-26.197,6.144   c-1.077,0.577-1.924,1.427-2.743,2.31c-2.376,2.064-4.093,4.71-6.185,7.026c-4.811,5.325-7.303,11.8-8.494,18.704   c-1.607,9.316-0.199,18.408,3.469,27.072c3.766,8.894,9.697,13.718,18.907,17.807c9.027,4.007,18.247,3.65,27.339,1.502   c6.202-1.464,10.007-1.48,15.37-5.254c9-6.333,12.001-13.084,15.402-20.587C92.53,57.212,90.123,40.452,90.065,40.012z    M80.812,71.8C73.161,80.46,63.988,84.019,53,87.29c-6.725,2.001-14.07,0.779-20.5-2.678c-8.653-4.652-14.574-9.713-18.775-18.518   c-2.711-5.684-3.125-11.548-3.459-17.669c0.276-13.108,6.509-22.669,17.616-29.505c11.663-7.178,24.226-8.284,37.09-5.148   c9.171,2.236,15.586,8.46,19.905,16.949C91.516,43.766,90.727,60.577,80.812,71.8z"/><path fill-rule="evenodd" clip-rule="evenodd" d="M25.302,17.347c-0.008,0.003-0.016,0.006-0.024,0.009   c-0.002,0.008-0.006,0.014-0.009,0.021L25.302,17.347z"/><path fill-rule="evenodd" clip-rule="evenodd" d="M54.167,54.333c-2.028-0.017-3.205-0.475-5.566,0.025   c-8.117,1.718-14.274,6.084-17.9,13.627c-1.351,2.812-2.464,5.704,0.851,8.341c1.745,1.389,3.401,2.658,5.555,3.323   c5.547,1.713,10.812,1.458,16.851,0.999c10.415-0.148,17.7-7.298,17.941-8.176c0.895-3.245,0.728-3.281-0.36-6.174   C69.224,60.148,61.096,54.242,54.167,54.333z M68.662,71.775c-5.109,4.061-11.496,6.359-18.209,6.129   c-3.292-0.014-6.857-0.559-10.389-1.361c-1.467-0.334-2.807-0.956-4.022-1.831c-3.538-2.547-3.79-6.853-0.767-10.047   c6.204-6.554,13.833-8.874,22.428-6.806c5.23,1.259,9.188,4.906,11.842,9.69C70.401,69.093,70.308,70.468,68.662,71.775z"/><path fill-rule="evenodd" clip-rule="evenodd" d="M50.242,49.695c7.2-0.079,12.368-5.873,12.138-14.056   c-0.215-7.647-4.677-10.429-13.205-11.131c-7.293,0.066-12.05,5.034-11.9,12.591C37.4,43.376,41.767,49.79,50.242,49.695z    M49.657,27.348c5.583,0.012,10.834,4.55,10.847,9.375c0.012,4.725-5.579,9.823-10.826,9.872c-5.943,0.056-9.44-3.459-9.479-9.528   C40.167,32.187,44.886,27.338,49.657,27.348z"/></g></svg>