<svg width="18" height="12" viewBox="0 0 18 12" fill="none" xmlns="http://www.w3.org/2000/svg">
<path d="M5.66699 4.16671H12.3337V5.83337H5.66699V4.16671ZM15.7503 5.00004H17.3337C17.3337 2.70004 15.467 0.833374 13.167 0.833374H9.83366V2.41671H13.167C14.592 2.41671 15.7503 3.57504 15.7503 5.00004ZM2.25033 5.00004C2.25033 3.57504 3.40866 2.41671 4.83366 2.41671H8.16699V0.833374H4.83366C2.53366 0.833374 0.666992 2.70004 0.666992 5.00004C0.666992 7.30004 2.53366 9.16671 4.83366 9.16671H8.16699V7.58337H4.83366C3.40866 7.58337 2.25033 6.42504 2.25033 5.00004ZM14.8337 5.00004H13.167V7.50004H10.667V9.16671H13.167V11.6667H14.8337V9.16671H17.3337V7.50004H14.8337V5.00004Z" fill="#3A3A3A"/>
</svg>
